<svg version="1.2" xmlns="http://www.w3.org/2000/svg" viewBox="0 0 400 40" width="400" height="40">
	<title>divider</title>
	<g id="Objects">
		<g id="&lt;Group&gt;">
			<g id="&lt;Group&gt;">
				<path id="&lt;Compound Path&gt;" fill-rule="evenodd" class="s0" d="m393.7 21.5c-0.9 2.6-3.8 2.8-5.9 1.6-0.7-0.5-1.3-1.1-1.5-1.8q-1.6 0-3.3 0c2.9 1.4 5.7 3.3 7.2 5.9 0.3 0.5-0.3 0.8-0.6 0.5-1.8-1.3-3.2-3.1-5-4.4q-1.5-1-3.1-1.9 0 0.2-0.1 0.3c2.8 1.1 5.3 2.9 6.5 5.5 1.5 3 0.7 7.2-2.5 8.6-4.4 2-10.6-2.1-14-4.4-2.3-1.7-4.4-3.6-6.7-5.3-2.9-2.1-5.8-3.3-9.2-4.5q0 0-0.1-0.1c-21.2 0.1-42.5 0-63.7 0h-69.9c-8.2 0-16.7 0.6-24.9-0.3-1.1-0.2-1.1-1.6 0-1.8 8.2-0.9 16.7-0.3 24.9-0.3h69.9c22.5 0 45-0.1 67.4 0 4.2-0.9 7.7-3.3 9.9-7 1.9-3.1 2.4-6.6 4.9-9.3 3.3-3.5 9-4.9 12.4-0.7 3 3.8 2.1 9.2-1 12.7-1.6 1.7-3.5 3-5.7 3.9 0.7-0.1 1.4-0.3 2-0.5 3.5-1.4 6-4.2 7.5-7.6 0.3-0.5 1.2-0.1 1 0.5-0.8 2.6-2.3 4.8-4.5 6.5q-1.3 1-2.7 1.7 1.6 0 3.1 0c0.5-1.8 2.8-3.1 4.6-2.8 2.3 0.4 3.9 2.7 3.1 5zm-28.7-2.6c1.6-0.8 3.2-1.3 4.7-2.2 1.9-1.1 3.5-2.3 5.2-3.7 0.3-0.3 0.8 0.2 0.5 0.5-2.2 2.2-5.3 4.6-8.5 5.6q2.6 0 5.3 0.1c4.9-0.7 10-2.6 12.8-6.7 1.7-2.6 2-5.9 0.4-8.6-2.5-4-7.4-2.7-10.2 0.3-3.4 3.6-3.6 9-7.4 12.6q-1.3 1.2-2.8 2.1zm10.1 2.6q-0.1 0-0.1-0.1-4.8 0.1-9.5 0.1c4.1 1.7 8.2 3.9 11.5 6.8 0.4 0.3-0.2 1-0.6 0.7-4.5-2.8-8.7-5.4-13.4-7.5q-1.3 0-2.6 0c4.9 1.8 9.1 6.5 13.1 9.1 2.2 1.4 4.7 2.7 7.2 3.4 3.9 1.1 7.2-2.1 5.5-5.9-1.9-4.5-7.3-4.7-11.1-6.6zm17-1.7c-0.3-1.2-1.7-1.9-2.8-1.5-1 0.3-1.4 1.1-1.9 1.9q0 0.1 0 0.3c0.2 0.9 1.6 1.5 2.4 1.7 1.4 0.2 2.8-1 2.3-2.4z"/>
				<path id="&lt;Compound Path&gt;" fill-rule="evenodd" class="s0" d="m196.9 21.2c-1.1-0.2-1.1-1.6 0-1.8 8.2-0.9 16.7-0.3 24.9-0.3h69.9c22.5 0 45-0.1 67.4 0 4.2-0.9 7.7-3.3 9.9-7 1.9-3.1 2.4-6.6 4.9-9.3 3.3-3.5 9-4.9 12.4-0.7 3 3.8 2.1 9.2-1 12.7-1.6 1.7-3.5 3-5.7 3.9 0.7-0.1 1.4-0.3 2-0.5 3.5-1.4 6-4.2 7.5-7.6 0.3-0.5 1.2-0.1 1 0.5-0.8 2.6-2.3 4.8-4.5 6.5q-1.3 1-2.7 1.7 1.6 0 3.1 0c0.5-1.8 2.8-3.1 4.6-2.8 2.3 0.4 3.9 2.7 3.1 5-0.9 2.6-3.8 2.8-5.9 1.6-0.7-0.5-1.3-1.1-1.5-1.8q-1.6 0-3.3 0c2.9 1.4 5.7 3.3 7.2 5.9 0.3 0.5-0.3 0.8-0.6 0.5-1.8-1.3-3.2-3.1-5-4.4q-1.5-1-3.1-1.9 0 0.2-0.1 0.3c2.8 1.1 5.3 2.9 6.5 5.5 1.5 3 0.7 7.2-2.5 8.6-4.4 2-10.6-2.1-14-4.4-2.3-1.7-4.4-3.6-6.7-5.3-2.9-2.1-5.8-3.3-9.2-4.5q0 0-0.1-0.1c-21.2 0.1-42.5 0-63.7 0h-69.9c-7.2 0-14.5 0.5-21.7 0q-1.6-0.1-3.2-0.3zm168.1-2.3c1.6-0.8 3.2-1.3 4.7-2.2 1.9-1.1 3.5-2.3 5.2-3.7 0.3-0.3 0.8 0.2 0.5 0.5-2.2 2.2-5.3 4.6-8.5 5.6q2.6 0 5.3 0.1c4.9-0.7 10-2.6 12.8-6.7 1.7-2.6 2-5.9 0.4-8.6-2.5-4-7.4-2.7-10.2 0.3-3.4 3.6-3.6 9-7.4 12.6q-1.3 1.2-2.8 2.1zm10.1 2.6q-0.1 0-0.1-0.1-4.8 0.1-9.5 0.1c4.1 1.7 8.2 3.9 11.5 6.8 0.4 0.3-0.2 1-0.6 0.7-4.5-2.8-8.7-5.4-13.4-7.5q-1.3 0-2.6 0c4.9 1.8 9.1 6.5 13.1 9.1 2.2 1.4 4.7 2.7 7.2 3.4 3.9 1.1 7.2-2.1 5.5-5.9-1.9-4.5-7.3-4.7-11.1-6.6zm17-1.7c-0.3-1.2-1.7-1.9-2.9-1.5-0.9 0.3-1.3 1.1-1.8 1.9q0 0.1 0 0.3c0.2 0.9 1.6 1.5 2.4 1.7 1.4 0.2 2.8-1 2.3-2.4z"/>
				<path id="&lt;Compound Path&gt;" fill-rule="evenodd" class="s0" d="m196.9 21.2c-1.1-0.2-1.1-1.6 0-1.8 8.2-0.9 16.7-0.3 24.9-0.3h69.9c22.5 0 45-0.1 67.4 0 4.2-0.9 7.7-3.3 9.9-7 1.9-3.1 2.4-6.6 4.9-9.3 3.3-3.5 9-4.9 12.4-0.7 3 3.8 2.1 9.2-1 12.7-1.6 1.7-3.5 3-5.7 3.9 0.7-0.1 1.4-0.3 2-0.5 3.5-1.4 6-4.2 7.5-7.6 0.3-0.5 1.2-0.1 1 0.5-0.8 2.6-2.3 4.8-4.5 6.5q-1.3 1-2.7 1.7 1.6 0 3.1 0c0.5-1.8 2.8-3.1 4.6-2.8 2.3 0.4 3.9 2.7 3.1 5-0.9 2.6-3.8 2.8-5.9 1.6-0.7-0.5-1.3-1.1-1.5-1.8q-1.6 0-3.3 0c2.9 1.4 5.7 3.3 7.2 5.9 0.3 0.5-0.3 0.8-0.6 0.5-1.8-1.3-3.2-3.1-5-4.4q-1.5-1-3.1-1.9 0 0.2-0.1 0.3c2.8 1.1 5.3 2.9 6.5 5.5 1.5 3 0.7 7.2-2.5 8.6-4.4 2-10.6-2.1-14-4.4-2.3-1.7-4.4-3.6-6.7-5.3-2.9-2.1-5.8-3.3-9.2-4.5q0 0-0.1-0.1c-21.2 0.1-42.5 0-63.7 0h-69.9c-7.2 0-14.5 0.5-21.7 0q-1.6-0.1-3.2-0.3zm168.1-2.3c1.6-0.8 3.2-1.3 4.7-2.2 1.9-1.1 3.5-2.3 5.2-3.7 0.3-0.3 0.8 0.2 0.5 0.5-2.2 2.2-5.3 4.6-8.5 5.6q2.6 0 5.3 0.1c4.9-0.7 10-2.6 12.8-6.7 1.7-2.6 2-5.9 0.4-8.6-2.5-4-7.4-2.7-10.2 0.3-3.4 3.6-3.6 9-7.4 12.6q-1.3 1.2-2.8 2.1zm10.1 2.6q-0.1 0-0.1-0.1-4.8 0.1-9.5 0.1c4.1 1.7 8.2 3.9 11.5 6.8 0.4 0.3-0.2 1-0.6 0.7-4.5-2.8-8.7-5.4-13.4-7.5q-1.3 0-2.6 0c4.9 1.8 9.1 6.5 13.1 9.1 2.2 1.4 4.7 2.7 7.2 3.4 3.9 1.1 7.2-2.1 5.5-5.9-1.9-4.5-7.3-4.7-11.1-6.6zm17-1.7c-0.3-1.2-1.7-1.9-2.9-1.5-0.9 0.3-1.3 1.1-1.8 1.9q0 0.1 0 0.3c0.2 0.9 1.6 1.5 2.4 1.7 1.4 0.2 2.8-1 2.3-2.4z"/>
				<path id="&lt;Compound Path&gt;" fill-rule="evenodd" class="s0" d="m178.4 21.5h-69.9c-21.2 0-42.5 0.1-63.7 0q0 0.1-0.1 0.1c-3.4 1.2-6.3 2.4-9.2 4.5-2.3 1.7-4.4 3.6-6.7 5.3-3.4 2.3-9.6 6.4-14 4.4-3.2-1.4-3.9-5.6-2.5-8.6 1.2-2.6 3.7-4.4 6.5-5.5q0-0.1-0.1-0.3-1.6 0.9-3.1 1.9c-1.8 1.3-3.2 3.1-4.9 4.4-0.4 0.3-1 0-0.7-0.5 1.5-2.6 4.3-4.5 7.2-5.9q-1.7 0-3.3 0c-0.2 0.7-0.8 1.3-1.5 1.8-2.1 1.2-5 1-5.9-1.6-0.8-2.3 0.8-4.6 3.1-5 1.8-0.3 4.1 1 4.6 2.8q1.5 0 3.1 0-1.4-0.7-2.7-1.7c-2.2-1.7-3.7-3.9-4.5-6.5-0.2-0.6 0.7-1 1-0.5 1.5 3.4 4.1 6.2 7.5 7.6 0.6 0.2 1.3 0.4 2 0.5-2.1-0.9-4.1-2.2-5.7-3.9-3.1-3.5-4-8.9-1-12.7 3.4-4.2 9.1-2.8 12.4 0.7 2.5 2.7 3.1 6.2 4.9 9.3 2.2 3.7 5.7 6.1 9.9 7 22.4-0.1 44.9 0 67.4 0h69.9c8.2 0 16.7-0.6 24.9 0.3 1.1 0.2 1.1 1.6 0 1.8q-1.6 0.2-3.2 0.3c-7.2 0.5-14.5 0-21.7 0zm-146-4.7c-3.8-3.6-4-9-7.4-12.6-2.8-3-7.7-4.3-10.2-0.3-1.6 2.7-1.3 6 0.4 8.6 2.8 4.1 7.9 6 12.8 6.7q2.7-0.1 5.3-0.1c-3.2-1-6.3-3.4-8.4-5.6-0.4-0.3 0.1-0.8 0.5-0.5 1.6 1.4 3.2 2.6 5.1 3.7 1.5 0.9 3.2 1.4 4.7 2.2q-1.5-0.9-2.8-2.1zm-18.4 11.3c-1.7 3.8 1.6 7 5.5 5.9 2.5-0.7 5-2 7.2-3.4 4-2.6 8.2-7.3 13.1-9.1q-1.3 0-2.6 0c-4.7 2.1-8.9 4.7-13.4 7.5-0.4 0.3-1-0.4-0.6-0.7 3.3-2.9 7.4-5.1 11.5-6.8q-4.7 0-9.5-0.1 0 0.1-0.1 0.1c-3.8 1.9-9.2 2.1-11.1 6.6zm-3.6-5.9c0.8-0.2 2.2-0.8 2.4-1.7q0-0.2 0-0.3c-0.5-0.8-0.9-1.6-1.8-1.9-1.2-0.4-2.6 0.3-2.9 1.5-0.5 1.4 0.9 2.6 2.3 2.4z"/>
			</g>
		</g>
	</g>
</svg>